<svg xmlns="http://www.w3.org/2000/svg" xmlns:xlink="http://www.w3.org/1999/xlink" width="400" zoomAndPan="magnify" viewBox="0 0 300 299.999988" height="400" preserveAspectRatio="xMidYMid meet" version="1.0"><defs><g/><clipPath id="6e598d005b"><path d="M 23.972656 23.972656 L 276.027344 23.972656 L 276.027344 276.027344 L 23.972656 276.027344 Z M 23.972656 23.972656 " clip-rule="nonzero"/></clipPath><clipPath id="754d8e1cac"><path d="M 73.472656 23.972656 L 226.527344 23.972656 C 253.867188 23.972656 276.027344 46.132812 276.027344 73.472656 L 276.027344 226.527344 C 276.027344 253.867188 253.867188 276.027344 226.527344 276.027344 L 73.472656 276.027344 C 46.132812 276.027344 23.972656 253.867188 23.972656 226.527344 L 23.972656 73.472656 C 23.972656 46.132812 46.132812 23.972656 73.472656 23.972656 Z M 73.472656 23.972656 " clip-rule="nonzero"/></clipPath><clipPath id="8554838f7a"><path d="M 0.972656 0.972656 L 253.027344 0.972656 L 253.027344 253.027344 L 0.972656 253.027344 Z M 0.972656 0.972656 " clip-rule="nonzero"/></clipPath><clipPath id="bb151c8e15"><path d="M 50.472656 0.972656 L 203.527344 0.972656 C 230.867188 0.972656 253.027344 23.132812 253.027344 50.472656 L 253.027344 203.527344 C 253.027344 230.867188 230.867188 253.027344 203.527344 253.027344 L 50.472656 253.027344 C 23.132812 253.027344 0.972656 230.867188 0.972656 203.527344 L 0.972656 50.472656 C 0.972656 23.132812 23.132812 0.972656 50.472656 0.972656 Z M 50.472656 0.972656 " clip-rule="nonzero"/></clipPath><clipPath id="537349524e"><rect x="0" width="254" y="0" height="254"/></clipPath><clipPath id="c88d99c254"><path d="M 0.960938 130 L 203.761719 130 L 203.761719 146 L 0.960938 146 Z M 0.960938 130 " clip-rule="nonzero"/></clipPath><clipPath id="7c40251a31"><rect x="0" width="204" y="0" height="154"/></clipPath></defs><g clip-path="url(#6e598d005b)"><g clip-path="url(#754d8e1cac)"><g transform="matrix(1, 0, 0, 1, 23, 23)"><g clip-path="url(#537349524e)"><g clip-path="url(#8554838f7a)"><g clip-path="url(#bb151c8e15)"><path fill="#ffffff" d="M 0.972656 0.972656 L 253.027344 0.972656 L 253.027344 253.027344 L 0.972656 253.027344 Z M 0.972656 0.972656 " fill-opacity="1" fill-rule="nonzero"/></g></g></g></g></g></g><g transform="matrix(1, 0, 0, 1, 48, 65)"><g clip-path="url(#7c40251a31)"><g clip-path="url(#c88d99c254)"><path fill="#000000" d="M 0.992188 130.757812 L 203.019531 130.757812 L 203.019531 145.464844 L 0.992188 145.464844 Z M 0.992188 130.757812 " fill-opacity="1" fill-rule="nonzero"/></g><g fill="#000000" fill-opacity="1"><g transform="translate(0.991243, 122.737214)"><g><path d="M 26.890625 0 L 9.78125 -17.109375 L 9.78125 -88.015625 L 26.890625 -88.015625 L 26.890625 -17.109375 L 81.90625 -17.109375 L 81.90625 0 Z M 26.890625 0 "/></g></g></g><g fill="#000000" fill-opacity="1"><g transform="translate(92.678917, 122.737214)"><g><path d="M 26.890625 0 L 9.78125 -17.109375 L 9.78125 -70.90625 L 26.890625 -88.015625 L 83.4375 -88.015625 L 83.4375 -105.140625 L 100.546875 -105.140625 L 100.546875 -17.109375 L 83.4375 0 Z M 26.890625 -17.109375 L 83.4375 -17.109375 L 83.4375 -70.90625 L 26.890625 -70.90625 Z M 26.890625 -17.109375 "/></g></g></g></g></g></svg>